{"buffers":[{"uri":"37 GB 555 Gear Motor v3.gltf.bin","byteLength":184884}],"asset":{"version":"2.0","generator":"gltfpack 0.16"},"bufferViews":[{"buffer":0,"byteOffset":0,"byteLength":74088,"byteStride":12,"target":34962},{"buffer":0,"byteOffset":74088,"byteLength":74088,"byteStride":12,"target":34962},{"buffer":0,"byteOffset":148176,"byteLength":36708,"target":34963}],"accessors":[{"bufferView":0,"byteOffset":0,"componentType":5126,"count":3400,"type":"VEC3","min":[-0.0185000002,-0.0184728689,-0.0828000009],"max":[0.0185000002,0.0184728689,0]},{"bufferView":1,"byteOffset":0,"componentType":5126,"count":3400,"type":"VEC3"},{"bufferView":2,"byteOffset":0,"componentType":5123,"count":9936,"type":"SCALAR"},{"bufferView":0,"byteOffset":40800,"componentType":5126,"count":794,"type":"VEC3","min":[-0.00600000005,-0.0129978741,-0.0846000016],"max":[0.00599149661,0.0014772116,0.0219999999]},{"bufferView":1,"byteOffset":40800,"componentType":5126,"count":794,"type":"VEC3"},{"bufferView":2,"byteOffset":19872,"componentType":5123,"count":2850,"type":"SCALAR"},{"bufferView":0,"byteOffset":50328,"componentType":5126,"count":488,"type":"VEC3","min":[-0.0137499999,-0.00365897827,-0.0869999975],"max":[0.0137499999,0.00365897827,-0.0790000036]},{"bufferView":1,"byteOffset":50328,"componentType":5126,"count":488,"type":"VEC3"},{"bufferView":2,"byteOffset":25572,"componentType":5123,"count":1272,"type":"SCALAR"},{"bufferView":0,"byteOffset":56184,"componentType":5126,"count":960,"type":"VEC3","min":[-0.0139562869,-0.0102499994,-0.0795999989],"max":[0.0139562869,0.0102499994,-0.0790000036]},{"bufferView":1,"byteOffset":56184,"componentType":5126,"count":960,"type":"VEC3"},{"bufferView":2,"byteOffset":28116,"componentType":5123,"count":2832,"type":"SCALAR"},{"bufferView":0,"byteOffset":67704,"componentType":5126,"count":96,"type":"VEC3","min":[-0.0146500003,-0.00300000003,-0.0797000006],"max":[0.0146500003,0.00300000003,-0.0790000036]},{"bufferView":1,"byteOffset":67704,"componentType":5126,"count":96,"type":"VEC3"},{"bufferView":2,"byteOffset":33780,"componentType":5123,"count":192,"type":"SCALAR"},{"bufferView":0,"byteOffset":68856,"componentType":5126,"count":436,"type":"VEC3","min":[-0.0184841063,-0.0183077604,-0.0610000007],"max":[0.0184756741,0.0184754301,-0.0270000007]},{"bufferView":1,"byteOffset":68856,"componentType":5126,"count":436,"type":"VEC3"},{"bufferView":2,"byteOffset":34164,"componentType":5123,"count":1272,"type":"SCALAR"}],"materials":[{"pbrMetallicRoughness":{"baseColorFactor":[0.627451003,0.627451003,0.627451003,1],"metallicFactor":0,"roughnessFactor":0},"doubleSided":true},{"pbrMetallicRoughness":{"baseColorFactor":[0.796078444,0.796078444,0.796078444,1],"metallicFactor":0,"roughnessFactor":0},"doubleSided":true},{"pbrMetallicRoughness":{"baseColorFactor":[0.952941179,0.796078444,0.486274511,1],"metallicFactor":0,"roughnessFactor":0},"doubleSided":true},{"pbrMetallicRoughness":{"baseColorFactor":[0.964705884,0.964705884,0.952941179,1],"metallicFactor":0,"roughnessFactor":0},"doubleSided":true},{"pbrMetallicRoughness":{"baseColorFactor":[0.823529422,0.823529422,0.819607854,1],"metallicFactor":0,"roughnessFactor":0},"doubleSided":true},{"pbrMetallicRoughness":{"baseColorFactor":[0.858823538,0.858823538,0.858823538,1],"metallicFactor":0,"roughnessFactor":0},"doubleSided":true}],"meshes":[{"primitives":[{"attributes":{"POSITION":0,"NORMAL":1},"mode":4,"indices":2,"material":0}]},{"primitives":[{"attributes":{"POSITION":3,"NORMAL":4},"mode":4,"indices":5,"material":1}]},{"primitives":[{"attributes":{"POSITION":6,"NORMAL":7},"mode":4,"indices":8,"material":2}]},{"primitives":[{"attributes":{"POSITION":9,"NORMAL":10},"mode":4,"indices":11,"material":3}]},{"primitives":[{"attributes":{"POSITION":12,"NORMAL":13},"mode":4,"indices":14,"material":4}]},{"primitives":[{"attributes":{"POSITION":15,"NORMAL":16},"mode":4,"indices":17,"material":5}]}],"nodes":[{"mesh":0},{"mesh":1},{"mesh":2},{"mesh":3},{"mesh":4},{"mesh":5},{"children":[0]},{"children":[1]},{"children":[2]},{"children":[3]},{"children":[4]},{"children":[5]}],"scenes":[{"nodes":[6,7,8,9,10,11]}]}